<?xml version="1.0" encoding="UTF-8" standalone="no"?>
<svg
   width="200"
   height="200"
   viewBox="0 0 200 200"
   version="1.1"
   xmlns="http://www.w3.org/2000/svg"><path
       style="fill:#ffdbf0"
       d="m 60,200 a 40,40 0 0 1 40,-40 40,40 0 0 1 40,40 h -40 z" /><path
       style="fill:#ffdbf0"
       d="m -140,0 a 40,40 0 0 1 40,-40 40,40 0 0 1 40,40 h -40 z"
       transform="scale(-1)" /><path
       style="fill:#ffdbf0"
       d="m -137.58365,200 a 40,40 0 0 1 40.000001,-40 40,40 0 0 1 40,40 h -40 z"
       transform="rotate(-90)" /><path
       style="fill:#ffdbf0"
       d="m 57.583649,0 a 40,40 0 0 1 40,-40 40,40 0 0 1 40.000001,40 H 97.583649 Z"
       transform="rotate(90)" /></svg>
