<?xml version="1.0" encoding="UTF-8"?>
<svg width="64" height="64" version="1.1" viewBox="0 0 17 17" xmlns="http://www.w3.org/2000/svg">
	<defs>
		<filter id="filter1237" x="-.095" y="-.12" color-interpolation-filters="sRGB">
			<feGaussianBlur stdDeviation="0.55513343"/>
		</filter>
	</defs>
	<g>
		<g filter="url(#filter1237)" stroke="#000" stroke-width=".53" aria-label="HD">
			<path d="m7.9 3.1v11h-2.8v-4.5h-.84v4.5h-2.8v-11h2.8v3.8h.84v-3.8z"/>
			<path d="m9 3.1h2.1q2 0 2.7.19.72.19 1.1.61.37.42.46.95.093.52.093 2v3.8q0 1.4-.14 1.9-.13.48-.47.76-.34.27-.84.38-.5.11-1.5.11h-3.5zm2.8 1.8v7.1q.6 0 .74-.24.14-.25.14-1.3v-4.2q0-.73-.046-.93t-.21-.3q-.17-.099-.62-.099z"/>
		</g>
		<g fill="#fff" stroke-width=".34" aria-label="HD">
			<path d="m7.9 3.1v11h-2.8v-4.5h-.84v4.5h-2.8v-11h2.8v3.8h.84v-3.8z"/>
			<path d="m9 3.1h2.1q2 0 2.7.19.72.19 1.1.61.37.42.46.95.093.52.093 2v3.8q0 1.4-.14 1.9-.13.48-.47.76-.34.27-.84.38-.5.11-1.5.11h-3.5zm2.8 1.8v7.1q.6 0 .74-.24.14-.25.14-1.3v-4.2q0-.73-.046-.93t-.21-.3q-.17-.099-.62-.099z"/>
		</g>
	</g>
</svg>
